# xmcd
#
# Track frame offsets:
#	150
#	30632
#	62415
#	104861
#	131897
#	154779
#	182582
#
# Disc length: 2612 seconds
#
# Revision: 0
# Processed by: cddbd v1.5.2PL0 Copyright (c) Steve Scherf et al.
# Submitted via: EasyCDDAExtractor 16.1.0.1
#
DISCID=5d0a3207
DTITLE=Bjørn Torske and Prins Thomas - Square One
DYEAR=1900
DGENRE=
TTITLE0=On U
TTITLE1=Arthur
TTITLE2=12 Volt
TTITLE3=K16 Del 1
TTITLE4=Steintongt
TTITLE5=Kappe Tre
TTITLE6=Arthur's Return
EXTD=
EXTT0=
EXTT1=
EXTT2=
EXTT3=
EXTT4=
EXTT5=
EXTT6=
PLAYORDER=
